<svg width="167" height="187" viewBox="0 0 167 187" fill="none" xmlns="http://www.w3.org/2000/svg">
<path d="M48.4587 145.512C48.4587 145.512 62.8597 155.815 72.2164 150.302C81.572 144.808 109.512 97.5169 108.458 65.1015C107.405 32.6862 105.209 1.41624 86.2322 4.45097C69.0411 7.21128 29.7724 52.1467 29.8366 81.9797C29.9238 111.814 40.278 136.748 48.4587 145.512Z" fill="url(#paint0_radial_1_113)"/>
<path d="M49.3085 156.318C49.3085 156.318 63.4051 163.705 74.4926 158.946C85.5582 154.166 120.196 127.041 137.041 92.8367C159.229 47.7293 142.523 9.92549 126.409 17.0824C110.294 24.2394 65.7157 60.4854 57.6182 93.6968C49.5207 126.908 43.359 145.396 49.3085 156.318Z" fill="url(#paint1_linear_1_113)"/>
<path d="M65.4483 174.984C74.654 172.732 90.5407 166.399 99.3361 159.766C108.132 153.114 123.601 117.124 124.169 79.308C125.132 14.7188 89.1075 12.2128 79.6209 27.0592C53.8741 67.3067 37.1434 57.9885 25.6934 100.147C15.5072 137.586 24.3382 185.03 65.4483 174.984Z" fill="url(#paint2_radial_1_113)"/>
<path opacity="0.2" d="M67.7623 169.133C70.0161 157.501 73.8661 146.129 77.8006 134.897C81.8039 123.669 86.0741 112.611 89.725 101.52C93.3979 90.4498 96.4286 79.3452 98.18 68.075C100.023 56.8096 100.469 45.4309 100.335 33.7293C105.02 44.6424 106.967 56.4213 106.774 68.2416C106.578 80.1008 104.127 91.9758 100.296 103.427C96.4865 114.899 91.4084 126.011 85.8819 136.904C80.2865 147.794 74.3564 158.491 67.7623 169.133Z" fill="#C497EB"/>
<path d="M75.2605 51.0129C77.2639 19.0719 59.4141 8.31248 48.3237 19.1622C21.2374 45.7174 6.42883 77.9674 3.50483 112.506C1.01368 141.949 25.3196 180.431 58.0844 178.93C69.6822 178.401 68.7354 155.195 75.2605 51.0129Z" fill="url(#paint3_radial_1_113)"/>
<path opacity="0.2" d="M48.603 34.6267C44.2223 45.6009 39.8998 56.3448 36.5354 67.2371C33.1033 78.1063 30.4949 89.0583 29.1468 100.097C27.7998 111.116 27.6443 122.219 29.2852 133.281C30.8562 144.359 34.3203 155.304 39.6506 166.193C30.3458 156.94 24.2962 145.74 20.9308 134.236C17.5905 122.694 16.9616 110.772 18.4335 99.1362C19.8835 87.4803 23.3895 76.0896 28.4761 65.2504C33.5627 54.4111 40.1652 44.0418 48.603 34.6267Z" fill="#C497EB"/>
<path d="M123.003 41.6912C124.357 19.328 144.919 25.387 149.114 38.142C155.898 58.8574 174.744 87.163 148.286 131.692C115.789 186.368 75.4289 184.078 60.1638 179.625C27.8422 170.234 116.897 143.191 123.003 41.6912Z" fill="url(#paint4_radial_1_113)"/>
<path opacity="0.2" d="M145.839 43.4929C145.597 54.9215 145.019 66.1765 143.955 77.5028C142.823 88.8061 140.995 100.208 137.269 111.412C133.568 122.578 127.834 133.48 119.841 143.192C111.87 152.904 101.889 161.497 90.3865 168.433C98.6826 159.089 106.446 149.813 112.631 139.947C118.882 130.123 123.548 119.845 127.105 109.216C130.662 98.5868 133.156 87.6287 135.794 76.5614C138.499 65.5173 141.259 54.3203 145.839 43.4929Z" fill="#C497EB"/>
<defs>
<radialGradient id="paint0_radial_1_113" cx="0" cy="0" r="1" gradientUnits="userSpaceOnUse" gradientTransform="translate(80.6219 -27.9855) rotate(1.48372) scale(55.8404 73.8768)">
<stop stop-color="#DAC8EB"/>
<stop offset="0.3135" stop-color="#CCAFEB"/>
<stop offset="0.7514" stop-color="#BC91EB"/>
<stop offset="1" stop-color="#B686EB"/>
</radialGradient>
<linearGradient id="paint1_linear_1_113" x1="60.625" y1="82.11" x2="137.03" y2="101.993" gradientUnits="userSpaceOnUse">
<stop stop-color="#DAC8EB"/>
<stop offset="0.3135" stop-color="#CCAFEB"/>
<stop offset="0.7514" stop-color="#BC91EB"/>
<stop offset="1" stop-color="#B686EB"/>
</linearGradient>
<radialGradient id="paint2_radial_1_113" cx="0" cy="0" r="1" gradientUnits="userSpaceOnUse" gradientTransform="translate(95.0799 48.1603) rotate(0.643606) scale(50.4447 80.7384)">
<stop stop-color="#DAC8EB"/>
<stop offset="0.4448" stop-color="#CBADEB"/>
<stop offset="1" stop-color="#B686EB"/>
</radialGradient>
<radialGradient id="paint3_radial_1_113" cx="0" cy="0" r="1" gradientUnits="userSpaceOnUse" gradientTransform="translate(67.2657 67.6569) rotate(17.1467) scale(70.5555 123.312)">
<stop stop-color="#DAC8EB"/>
<stop offset="0.2909" stop-color="#D2B9EB"/>
<stop offset="0.8485" stop-color="#BC92EB"/>
<stop offset="1" stop-color="#B686EB"/>
</radialGradient>
<radialGradient id="paint4_radial_1_113" cx="0" cy="0" r="1" gradientUnits="userSpaceOnUse" gradientTransform="translate(105.417 71.4697) rotate(-4.03426) scale(76.626 178.117)">
<stop stop-color="#DAC8EB"/>
<stop offset="0.3733" stop-color="#CEB2EB"/>
<stop offset="1" stop-color="#B686EB"/>
</radialGradient>
</defs>
</svg>
