<svg width="205" height="219" viewBox="0 0 205 219" fill="none" xmlns="http://www.w3.org/2000/svg">
<path d="M113.698 174.711C113.698 174.711 128.857 173.23 134.311 163.741C139.759 154.235 157.6 103.689 141.387 71.0724C125.194 38.4472 94.8268 10.8846 87.0065 24.8987C79.207 38.9047 67.6556 90.5775 81.7868 120.99C95.918 151.402 102.535 169.19 113.698 174.711Z" fill="url(#paint0_radial_3704_12)"/>
<path d="M99.0232 174.299C99.0232 174.299 115.556 177.082 120.63 168.255C125.705 159.429 126.414 106.155 110.45 78.3166C94.4927 50.4956 78.1207 24.1635 64.0949 34.9758C51.3743 44.7863 40.3046 100.89 54.2696 126.888C68.2199 152.911 88.3001 170.193 99.0232 174.299Z" fill="url(#paint1_radial_3704_12)"/>
<path d="M129.845 187.037C129.845 187.037 110.121 196.71 99.5107 193.116C88.9009 189.522 50.2187 150.677 32.7685 118.46C14.4918 84.681 23.8374 42.3271 39.2895 47.7887C54.7416 53.2504 107.367 83.0991 114.681 116.196C122.028 149.319 135.765 175.147 129.845 187.037Z" fill="url(#paint2_radial_3704_12)"/>
<path d="M133.651 186.433C142.652 179.314 148.832 165.044 155.261 154.364C161.712 143.676 164.393 105.553 154.923 68.9916C138.513 5.5114 116.964 13.0981 103.896 31.5063C87.8924 54.0466 64.5691 93.0426 72.2703 135.978C79.1114 174.094 93.4657 218.175 133.651 186.433Z" fill="url(#paint3_radial_3704_12)"/>
<path d="M19.1472 65.9298C13.5239 64.405 9.044 69.4726 10.4108 75.7605C15.2115 97.8805 27.5309 144.832 50.0318 172.572C67.5139 194.133 106.717 203.046 116.331 187.008C120.694 179.706 94.6729 86.4588 19.1472 65.9298Z" fill="url(#paint4_radial_3704_12)"/>
<path opacity="0.2" d="M17.8508 80.2671C23.6717 91.9623 29.3421 103.438 35.7705 114.442C42.1571 125.462 49.1493 136.049 57.0248 145.917C64.9211 155.776 73.6861 164.942 83.5951 172.99C93.4687 181.071 104.526 187.881 116.786 193.471C103.181 191.673 90.1798 186.272 78.7691 178.945C67.3186 171.574 57.3856 162.207 49.0898 151.77C40.7731 141.34 34.0247 129.846 28.7718 117.811C23.5669 105.778 19.7135 93.2005 17.8508 80.2671Z" fill="#FFA957"/>
<path opacity="0.2" d="M41.2136 85.0178C46.3502 95.2145 51.3698 105.219 56.8048 114.923C62.219 124.636 67.9588 134.063 74.1893 143.003C80.4198 151.943 87.1118 160.446 94.4153 168.137C101.69 175.88 109.559 182.697 118.039 188.703C109.17 185.643 100.247 179.73 92.0638 172.439C83.883 165.088 76.4033 156.316 69.8464 146.868C63.2834 137.403 57.5743 127.27 52.7676 116.866C47.9755 106.436 43.9751 95.7593 41.2136 85.0178Z" fill="#FFA957"/>
<path d="M137.509 28.4366C142.431 23.2764 154.031 22.6218 156.504 28.4803C165.219 49.0422 176.096 97.0093 169.818 134.407C164.935 163.475 139.587 195.745 109.273 195.156C99.3447 194.965 71.3084 97.722 137.509 28.4366Z" fill="url(#paint5_radial_3704_12)"/>
<path opacity="0.2" d="M148.133 36.8818C151.338 48.7197 154.125 60.5214 156.478 72.571C158.742 84.6355 160.353 97.0718 159.941 110.036C159.591 122.975 157.06 136.404 151.943 149.528C146.819 162.635 139.344 175.365 129.838 187.021C135.386 174.165 140.437 161.582 143.688 149.024C147.04 136.486 148.656 124.085 149.019 111.775C149.403 99.4567 148.623 87.2131 147.945 74.7911C147.349 62.397 146.774 49.7966 148.133 36.8818Z" fill="#FFA957"/>
<path opacity="0.2" d="M129.684 60.4297C132.344 70.2986 134.677 80.1164 136.638 90.1577C138.53 100.206 139.862 110.551 139.523 121.345C139.22 132.106 137.122 143.306 132.855 154.237C128.582 165.151 122.362 175.749 114.44 185.462C119.056 174.772 123.266 164.279 125.971 153.835C128.75 143.402 130.111 133.063 130.411 122.819C130.731 112.567 130.068 102.359 129.525 92.025C129.025 81.6749 128.543 71.1789 129.684 60.4297Z" fill="#FFA957"/>
<defs>
<radialGradient id="paint0_radial_3704_12" cx="0" cy="0" r="1" gradientUnits="userSpaceOnUse" gradientTransform="translate(89.64 14.0992) rotate(-24.0739) scale(60.5465 94.3528)">
<stop stop-color="#FFD88C"/>
<stop offset="0.3587" stop-color="#FFBA6D"/>
<stop offset="0.7677" stop-color="#FF9E4F"/>
<stop offset="1" stop-color="#FF9344"/>
</radialGradient>
<radialGradient id="paint1_radial_3704_12" cx="0" cy="0" r="1" gradientUnits="userSpaceOnUse" gradientTransform="translate(44.3795 9.10855) rotate(-26.2598) scale(51.4729 73.0501)">
<stop stop-color="#FFD88C"/>
<stop offset="0.3587" stop-color="#FFBA6D"/>
<stop offset="0.7677" stop-color="#FF9E4F"/>
<stop offset="1" stop-color="#FF9344"/>
</radialGradient>
<radialGradient id="paint2_radial_3704_12" cx="0" cy="0" r="1" gradientUnits="userSpaceOnUse" gradientTransform="translate(47.3747 28.891) rotate(-26.1811) scale(77.238 97.3359)">
<stop stop-color="#FFD88C"/>
<stop offset="0.4861" stop-color="#FFB86B"/>
<stop offset="1" stop-color="#FF9344"/>
</radialGradient>
<radialGradient id="paint3_radial_3704_12" cx="0" cy="0" r="1" gradientUnits="userSpaceOnUse" gradientTransform="translate(78.8068 35.6168) rotate(-27.0199) scale(87.9831 113.323)">
<stop stop-color="#FFD88C"/>
<stop offset="0.4112" stop-color="#FFBE71"/>
<stop offset="1" stop-color="#FF9344"/>
</radialGradient>
<radialGradient id="paint4_radial_3704_12" cx="0" cy="0" r="1" gradientUnits="userSpaceOnUse" gradientTransform="translate(47.7696 101.522) rotate(-30.191) scale(53.9277 120.731)">
<stop stop-color="#FFD88C"/>
<stop offset="0.2705" stop-color="#FFCA7D"/>
<stop offset="0.789" stop-color="#FFA456"/>
<stop offset="1" stop-color="#FF9344"/>
</radialGradient>
<radialGradient id="paint5_radial_3704_12" cx="0" cy="0" r="1" gradientUnits="userSpaceOnUse" gradientTransform="translate(119.446 54.2321) rotate(-7.26347) scale(88.4087 135.594)">
<stop stop-color="#FFD88C"/>
<stop offset="0.2088" stop-color="#FFD386"/>
<stop offset="0.4801" stop-color="#FFC376"/>
<stop offset="0.7846" stop-color="#FFA95B"/>
<stop offset="1" stop-color="#FF9344"/>
</radialGradient>
</defs>
</svg>
