<svg width="81" height="380" viewBox="0 0 81 380" fill="none" xmlns="http://www.w3.org/2000/svg">
<g opacity="0.7">
<path d="M28.9842 31.0659C28.9842 31.0659 20.8035 32.293 21.2881 35.3279C70.262 335.384 54.7845 470.82 54.0476 529.826C54.0476 529.826 70.7528 537.237 71.8949 525.059C88.5166 349.153 33.2556 38.2192 28.9842 31.0659Z" fill="url(#paint0_linear_1_84)"/>
<path d="M44.2163 16.2384C41.0311 14.2411 23.0552 22.5301 25.4424 35.9487C26.2092 40.2153 32.4047 39.0412 39.6989 32.2878C44.0697 28.2663 47.2875 18.1474 44.2163 16.2384Z" fill="url(#paint1_linear_1_84)"/>
<path d="M3.77938 19.7407C8.48898 16.9856 32.3884 22.43 27.244 37.2857C25.6086 42.0064 17.1427 41.9453 7.88686 36.107C2.36306 32.6137 -0.735988 22.3716 3.77938 19.7407Z" fill="url(#paint2_linear_1_84)"/>
<path d="M32.478 1.16347C28.3563 1.52365 14.7098 25.8832 23.6455 39.3177C26.4915 43.5828 32.0312 37.1154 35.9176 23.3309C38.2293 15.0954 36.4369 0.831177 32.478 1.16347Z" fill="url(#paint3_linear_1_84)"/>
<path d="M12.5995 8.63154C17.0878 8.30778 34.9099 26.4293 26.9955 38.849C24.4817 42.8056 17.6821 38.2678 11.7454 27.4645C8.18379 20.99 8.29213 8.9264 12.5995 8.63154Z" fill="url(#paint4_linear_1_84)"/>
</g>
<defs>
<linearGradient id="paint0_linear_1_84" x1="-21.5716" y1="81.1354" x2="175.375" y2="483.793" gradientUnits="userSpaceOnUse">
<stop stop-color="#9CD38B"/>
<stop offset="0.0186" stop-color="#9CD28A"/>
<stop offset="0.6632" stop-color="#91AB6B"/>
<stop offset="1" stop-color="#8D9C5F"/>
</linearGradient>
<linearGradient id="paint1_linear_1_84" x1="35.7719" y1="16.5532" x2="33.9493" y2="39.1312" gradientUnits="userSpaceOnUse">
<stop stop-color="#9CD38B"/>
<stop offset="0.0186" stop-color="#9CD28A"/>
<stop offset="0.6632" stop-color="#91AB6B"/>
<stop offset="1" stop-color="#8D9C5F"/>
</linearGradient>
<linearGradient id="paint2_linear_1_84" x1="15.5008" y1="18.4541" x2="20.053" y2="41.3288" gradientUnits="userSpaceOnUse">
<stop stop-color="#9CD38B"/>
<stop offset="0.0186" stop-color="#9CD28A"/>
<stop offset="0.6632" stop-color="#91AB6B"/>
<stop offset="1" stop-color="#8D9C5F"/>
</linearGradient>
<linearGradient id="paint3_linear_1_84" x1="23.7867" y1="8.35982" x2="39.4218" y2="32.6129" gradientUnits="userSpaceOnUse">
<stop stop-color="#9CD38B"/>
<stop offset="0.0186" stop-color="#9CD28A"/>
<stop offset="0.6632" stop-color="#91AB6B"/>
<stop offset="1" stop-color="#8D9C5F"/>
</linearGradient>
<linearGradient id="paint4_linear_1_84" x1="22.5062" y1="13.4264" x2="13.9496" y2="36.9615" gradientUnits="userSpaceOnUse">
<stop stop-color="#9CD38B"/>
<stop offset="0.0186" stop-color="#9CD28A"/>
<stop offset="0.6632" stop-color="#91AB6B"/>
<stop offset="1" stop-color="#8D9C5F"/>
</linearGradient>
</defs>
</svg>
