<svg width="84" height="518" viewBox="0 0 84 518" fill="none" xmlns="http://www.w3.org/2000/svg">
<g opacity="0.7">
<path d="M28.908 32.008C28.908 32.008 37.4091 32.3433 37.2381 35.4695C19.2416 344.673 49.5697 480.071 56.6378 539.726C56.6378 539.726 40.3397 549.081 37.8681 536.879C2.03872 360.637 25.3034 39.7236 28.908 32.008Z" fill="url(#paint0_linear_1_106)"/>
<path d="M11.7371 18.6859C14.7821 16.3107 34.0604 22.7091 33.054 36.5587C32.726 40.9632 26.2618 40.4615 18.0764 34.4332C13.1742 30.8466 8.79925 20.9592 11.7371 18.6859Z" fill="url(#paint1_linear_1_106)"/>
<path d="M53.4829 17.7476C48.3697 15.4806 24.5007 23.6426 31.3536 38.1118C33.532 42.7097 42.187 41.7091 51.0319 34.7721C56.3095 30.623 58.3841 19.9105 53.4829 17.7476Z" fill="url(#paint2_linear_1_106)"/>
<path d="M22.1333 2.1226C26.3887 2.03022 42.9572 25.1783 35.2527 39.7702C32.7974 44.4036 26.4375 38.4703 20.9863 24.9461C17.74 16.8648 18.0473 2.22518 22.1333 2.1226Z" fill="url(#paint3_linear_1_106)"/>
<path d="M43.2703 7.47926C38.6437 7.64917 22.349 27.9714 31.7752 39.6673C34.7705 43.3942 41.2416 38.0462 46.1594 26.4508C49.1105 19.5012 47.7088 7.30015 43.2703 7.47926Z" fill="url(#paint4_linear_1_106)"/>
</g>
<defs>
<linearGradient id="paint0_linear_1_106" x1="85.9898" y1="77.092" x2="-68.038" y2="508.141" gradientUnits="userSpaceOnUse">
<stop stop-color="#9CD38B"/>
<stop offset="0.0186" stop-color="#9CD28A"/>
<stop offset="0.6632" stop-color="#91AB6B"/>
<stop offset="1" stop-color="#8D9C5F"/>
</linearGradient>
<linearGradient id="paint1_linear_1_106" x1="20.4103" y1="18.0683" x2="24.7111" y2="40.7201" gradientUnits="userSpaceOnUse">
<stop stop-color="#9CD38B"/>
<stop offset="0.0186" stop-color="#9CD28A"/>
<stop offset="0.6632" stop-color="#91AB6B"/>
<stop offset="1" stop-color="#8D9C5F"/>
</linearGradient>
<linearGradient id="paint2_linear_1_106" x1="41.353" y1="17.7449" x2="39.2994" y2="41.4212" gradientUnits="userSpaceOnUse">
<stop stop-color="#9CD38B"/>
<stop offset="0.0186" stop-color="#9CD28A"/>
<stop offset="0.6632" stop-color="#91AB6B"/>
<stop offset="1" stop-color="#8D9C5F"/>
</linearGradient>
<linearGradient id="paint3_linear_1_106" x1="31.7954" y1="8.44437" x2="18.6836" y2="34.8751" gradientUnits="userSpaceOnUse">
<stop stop-color="#9CD38B"/>
<stop offset="0.0186" stop-color="#9CD28A"/>
<stop offset="0.6632" stop-color="#91AB6B"/>
<stop offset="1" stop-color="#8D9C5F"/>
</linearGradient>
<linearGradient id="paint4_linear_1_106" x1="33.6478" y1="13.432" x2="44.8079" y2="36.3647" gradientUnits="userSpaceOnUse">
<stop stop-color="#9CD38B"/>
<stop offset="0.0186" stop-color="#9CD28A"/>
<stop offset="0.6632" stop-color="#91AB6B"/>
<stop offset="1" stop-color="#8D9C5F"/>
</linearGradient>
</defs>
</svg>
